<svg width="50" height="50" viewBox="0 0 40 40" fill="none" xmlns="http://www.w3.org/2000/svg">
<path d="M12 20C12 19.7348 12.1054 19.4804 12.2929 19.2929C12.4804 19.1054 12.7348 19 13 19H19V13C19 12.7348 19.1054 12.4804 19.2929 12.2929C19.4804 12.1054 19.7348 12 20 12C20.2652 12 20.5196 12.1054 20.7071 12.2929C20.8946 12.4804 21 12.7348 21 13V19H27C27.2652 19 27.5196 19.1054 27.7071 19.2929C27.8946 19.4804 28 19.7348 28 20C28 20.2652 27.8946 20.5196 27.7071 20.7071C27.5196 20.8946 27.2652 21 27 21H21V27C21 27.2652 20.8946 27.5196 20.7071 27.7071C20.5196 27.8946 20.2652 28 20 28C19.7348 28 19.4804 27.8946 19.2929 27.7071C19.1054 27.5196 19 27.2652 19 27V21H13C12.7348 21 12.4804 20.8946 12.2929 20.7071C12.1054 20.5196 12 20.2652 12 20ZM20 36C24.2435 36 28.3131 34.3143 31.3137 31.3137C34.3143 28.3131 36 24.2435 36 20C36 15.7565 34.3143 11.6869 31.3137 8.68629C28.3131 5.68571 24.2435 4 20 4C15.7565 4 11.6869 5.68571 8.68629 8.68629C5.68571 11.6869 4 15.7565 4 20C4 24.2435 5.68571 28.3131 8.68629 31.3137C11.6869 34.3143 15.7565 36 20 36V36ZM20 34C18.1615 34 16.341 33.6379 14.6424 32.9343C12.9439 32.2307 11.4005 31.1995 10.1005 29.8995C8.80048 28.5995 7.76925 27.0561 7.06569 25.3576C6.36212 23.659 6 21.8385 6 20C6 18.1615 6.36212 16.341 7.06569 14.6424C7.76925 12.9439 8.80048 11.4005 10.1005 10.1005C11.4005 8.80048 12.9439 7.76925 14.6424 7.06569C16.341 6.36212 18.1615 6 20 6C23.713 6 27.274 7.475 29.8995 10.1005C32.525 12.726 34 16.287 34 20C34 23.713 32.525 27.274 29.8995 29.8995C27.274 32.525 23.713 34 20 34Z" fill="black"/>
</svg>
