<svg width="50" height="50" viewBox="0 0 50 50" fill="none" xmlns="http://www.w3.org/2000/svg">
<g clip-path="url(#clip0_31_80)">
<path fill-rule="evenodd" clip-rule="evenodd" d="M25 46.875C30.8016 46.875 36.3656 44.5703 40.468 40.468C44.5703 36.3656 46.875 30.8016 46.875 25C46.875 19.1984 44.5703 13.6344 40.468 9.53204C36.3656 5.42968 30.8016 3.125 25 3.125C19.1984 3.125 13.6344 5.42968 9.53204 9.53204C5.42968 13.6344 3.125 19.1984 3.125 25C3.125 30.8016 5.42968 36.3656 9.53204 40.468C13.6344 44.5703 19.1984 46.875 25 46.875V46.875ZM25 0C31.6304 0 37.9893 2.63392 42.6777 7.32233C47.3661 12.0107 50 18.3696 50 25C50 31.6304 47.3661 37.9893 42.6777 42.6777C37.9893 47.3661 31.6304 50 25 50C18.3696 50 12.0107 47.3661 7.32233 42.6777C2.63392 37.9893 0 31.6304 0 25C0 18.3696 2.63392 12.0107 7.32233 7.32233C12.0107 2.63392 18.3696 0 25 0V0ZM35.9375 23.4375C36.3519 23.4375 36.7493 23.6021 37.0424 23.8951C37.3354 24.1882 37.5 24.5856 37.5 25C37.5 25.4144 37.3354 25.8118 37.0424 26.1049C36.7493 26.3979 36.3519 26.5625 35.9375 26.5625L17.8344 26.5625L24.5438 33.2687C24.8371 33.5621 25.002 33.9601 25.002 34.375C25.002 34.7899 24.8371 35.1879 24.5438 35.4813C24.2504 35.7746 23.8524 35.9395 23.4375 35.9395C23.0226 35.9395 22.6246 35.7746 22.3312 35.4813L12.9562 26.1063C12.8107 25.9611 12.6953 25.7887 12.6165 25.5989C12.5378 25.409 12.4972 25.2055 12.4972 25C12.4972 24.7945 12.5378 24.591 12.6165 24.4011C12.6953 24.2113 12.8107 24.0389 12.9562 23.8937L22.3312 14.5187C22.6246 14.2254 23.0226 14.0605 23.4375 14.0605C23.8524 14.0605 24.2504 14.2254 24.5438 14.5187C24.8371 14.8121 25.002 15.2101 25.002 15.625C25.002 16.0399 24.8371 16.4379 24.5438 16.7313L17.8344 23.4375L35.9375 23.4375Z" fill="black"/>
</g>
<defs>
<clipPath id="clip0_31_80">
<rect width="50" height="50" fill="white" transform="translate(0 50) rotate(-90)"/>
</clipPath>
</defs>
</svg>
