<svg width="40" height="40" viewBox="0 0 40 40" fill="white" xmlns="http://www.w3.org/2000/svg">
<g clip-path="url(#clip0_22_2)">
<path fill-rule="evenodd" clip-rule="evenodd" d="M2.5 20C2.5 24.6413 4.34374 29.0925 7.62563 32.3744C10.9075 35.6563 15.3587 37.5 20 37.5C24.6413 37.5 29.0925 35.6563 32.3744 32.3744C35.6563 29.0925 37.5 24.6413 37.5 20C37.5 15.3587 35.6563 10.9075 32.3744 7.62563C29.0925 4.34374 24.6413 2.5 20 2.5C15.3587 2.5 10.9075 4.34374 7.62563 7.62563C4.34374 10.9075 2.5 15.3587 2.5 20V20ZM40 20C40 25.3043 37.8929 30.3914 34.1421 34.1421C30.3914 37.8929 25.3043 40 20 40C14.6957 40 9.60859 37.8929 5.85786 34.1421C2.10714 30.3914 0 25.3043 0 20C0 14.6957 2.10714 9.60859 5.85786 5.85786C9.60859 2.10714 14.6957 0 20 0C25.3043 0 30.3914 2.10714 34.1421 5.85786C37.8929 9.60859 40 14.6957 40 20V20ZM21.25 28.75C21.25 29.0815 21.1183 29.3995 20.8839 29.6339C20.6495 29.8683 20.3315 30 20 30C19.6685 30 19.3505 29.8683 19.1161 29.6339C18.8817 29.3995 18.75 29.0815 18.75 28.75V14.2675L13.385 19.635C13.1503 19.8697 12.8319 20.0016 12.5 20.0016C12.1681 20.0016 11.8497 19.8697 11.615 19.635C11.3803 19.4003 11.2484 19.0819 11.2484 18.75C11.2484 18.4181 11.3803 18.0997 11.615 17.865L19.115 10.365C19.2311 10.2486 19.3691 10.1562 19.5209 10.0932C19.6728 10.0302 19.8356 9.99777 20 9.99777C20.1644 9.99777 20.3272 10.0302 20.4791 10.0932C20.6309 10.1562 20.7689 10.2486 20.885 10.365L28.385 17.865C28.6197 18.0997 28.7516 18.4181 28.7516 18.75C28.7516 19.0819 28.6197 19.4003 28.385 19.635C28.1503 19.8697 27.8319 20.0016 27.5 20.0016C27.1681 20.0016 26.8497 19.8697 26.615 19.635L21.25 14.2675V28.75Z" fill="black"/>
</g>
<defs>
<clipPath id="clip0_22_2">
<rect width="40" height="40" fill="white"/>
</clipPath>
</defs>
</svg>
