<svg width="36" height="36" viewBox="0 0 36 36" fill="none" xmlns="http://www.w3.org/2000/svg">
<g clip-path="url(#clip0_12_17)">
<path d="M28 30H6V8H19.22L21.22 6H6C5.46957 6 4.96086 6.21071 4.58579 6.58579C4.21071 6.96086 4 7.46957 4 8V30C4 30.5304 4.21071 31.0391 4.58579 31.4142C4.96086 31.7893 5.46957 32 6 32H28C28.5304 32 29.0391 31.7893 29.4142 31.4142C29.7893 31.0391 30 30.5304 30 30V15L28 17V30Z" fill="black"/>
<path d="M33.53 5.84001L30.16 2.47001C30.0104 2.32004 29.8327 2.20105 29.6371 2.11986C29.4415 2.03868 29.2318 1.99689 29.02 1.99689C28.8082 1.99689 28.5984 2.03868 28.4028 2.11986C28.2072 2.20105 28.0295 2.32004 27.88 2.47001L14.17 16.26L13.06 21.07C13.0127 21.3032 13.0176 21.5439 13.0745 21.7749C13.1314 22.0059 13.2388 22.2215 13.3889 22.406C13.539 22.5906 13.7282 22.7396 13.9428 22.8423C14.1574 22.945 14.3921 22.9988 14.63 23C14.7529 23.0135 14.877 23.0135 15 23L19.85 21.93L33.53 8.12001C33.6799 7.97045 33.7989 7.79277 33.8801 7.59714C33.9613 7.40152 34.0031 7.1918 34.0031 6.98001C34.0031 6.76821 33.9613 6.55849 33.8801 6.36287C33.7989 6.16724 33.6799 5.98957 33.53 5.84001ZM18.81 20.08L15.15 20.89L16 17.26L26.32 6.87001L29.14 9.69001L18.81 20.08ZM30.27 8.56001L27.45 5.74001L29 4.16001L31.84 7.00001L30.27 8.56001Z" fill="black"/>
</g>
<defs>
<clipPath id="clip0_12_17">
<rect width="36" height="36" fill="white"/>
</clipPath>
</defs>
</svg>
