<svg width="45" height="50" viewBox="0 0 45 50" fill="none" xmlns="http://www.w3.org/2000/svg">
<path d="M13.8462 15.625H17.3077V40.625H13.8462V15.625ZM20.7692 15.625H24.2308V40.625H20.7692V15.625ZM27.6923 15.625H31.1538V40.625H27.6923V15.625ZM0 6.25H45V9.375H0V6.25ZM31.1538 6.25H27.6923V4.6875C27.6923 3.75 27 3.125 25.9615 3.125H19.0385C18 3.125 17.3077 3.75 17.3077 4.6875V6.25H13.8462V4.6875C13.8462 2.03125 16.0962 0 19.0385 0H25.9615C28.9038 0 31.1538 2.03125 31.1538 4.6875V6.25Z" fill="black"/>
<path d="M32.8846 50H12.1154C9.34615 50 6.92308 47.9687 6.57692 45.4687L3.46154 7.96875L6.92308 7.65625L10.0385 45.1563C10.0385 46.0938 11.0769 46.875 12.1154 46.875H32.8846C33.9231 46.875 34.7885 46.0938 34.9615 45.1563L38.0769 7.65625L41.5385 7.96875L38.4231 45.4687C38.0769 47.9687 35.6538 50 32.8846 50Z" fill="black"/>
</svg>
