<svg width="50" height="50" viewBox="0 0 50 50" fill="none" xmlns="http://www.w3.org/2000/svg">
<path d="M20 18H22V34H20V18ZM24 18H26V34H24V18ZM28 18H30V34H28V18ZM12 12H38V14H12V12ZM30 12H28V11C28 10.4 27.6 10 27 10H23C22.4 10 22 10.4 22 11V12H20V11C20 9.3 21.3 8 23 8H27C28.7 8 30 9.3 30 11V12Z" fill="black"/>
<path d="M31 40H19C17.4 40 16 38.7 15.8 37.1L14 13.1L16 12.9L17.8 36.9C17.8 37.5 18.4 38 19 38H31C31.6 38 32.1 37.5 32.2 36.9L34 12.9L36 13.1L34.2 37.1C34 38.7 32.6 40 31 40Z" fill="black"/>
</svg>
