<svg width="24" height="24" viewBox="0 0 24 24" fill="none" xmlns="http://www.w3.org/2000/svg">
<path d="M4.15138 7.32985L11.0128 14.0399L17.8959 7.35195C18.0188 7.23222 18.1838 7.16534 18.3554 7.16562C18.527 7.16589 18.6918 7.2333 18.8144 7.35343C18.8737 7.41178 18.9208 7.48138 18.953 7.55816C18.9851 7.63495 19.0016 7.71737 19.0014 7.8006C19.0013 7.88384 18.9845 7.96621 18.9522 8.04289C18.9198 8.11957 18.8725 8.18902 18.8129 8.24718L11.4906 15.3634C11.362 15.4883 11.1897 15.5581 11.0104 15.5578C10.8311 15.5575 10.659 15.4872 10.5308 15.3619L3.23144 8.2235C3.17166 8.1651 3.12419 8.09533 3.09182 8.01829C3.05945 7.94125 3.04284 7.85851 3.04298 7.77494C3.04311 7.69138 3.05998 7.60869 3.0926 7.53175C3.12522 7.45482 3.17292 7.38519 3.23288 7.327C3.35586 7.20726 3.5208 7.14039 3.69243 7.14066C3.86407 7.14094 4.02879 7.20835 4.15138 7.32847L4.15138 7.32985Z" fill="black"/>
</svg>
