<svg width="24" height="24" viewBox="0 0 24 24" fill="none" xmlns="http://www.w3.org/2000/svg">
<path d="M8.39847 18.9203L15.0399 11.9924L8.28374 5.17632C8.16278 5.05454 8.09427 4.89028 8.09284 4.71865C8.0914 4.54702 8.15717 4.38164 8.27607 4.25785C8.33382 4.19792 8.40295 4.15011 8.47941 4.11723C8.55588 4.08434 8.63813 4.06705 8.72136 4.06635C8.80459 4.06566 8.88712 4.08158 8.96412 4.11318C9.04112 4.14478 9.11104 4.19143 9.16979 4.25039L16.3586 11.5015C16.4848 11.6288 16.5563 11.8005 16.5578 11.9797C16.5592 12.159 16.4906 12.3318 16.3666 12.4612L9.30124 19.8313C9.24344 19.8917 9.17414 19.9399 9.09743 19.973C9.02072 20.0061 8.93814 20.0236 8.85458 20.0243C8.77102 20.025 8.68817 20.0089 8.61091 19.9771C8.53365 19.9452 8.46356 19.8982 8.40477 19.8388C8.28382 19.717 8.2153 19.5528 8.21387 19.3812C8.21243 19.2095 8.2782 19.0441 8.3971 18.9204L8.39847 18.9203Z" fill="black"/>
</svg>
