<svg width="36" height="36" viewBox="0 5 50 40" fill="none" xmlns="http://www.w3.org/2000/svg">
<path d="M45.9697 14.1246C45.3021 12.5789 44.3395 11.1781 43.1358 10.0008C41.9312 8.81998 40.5109 7.88158 38.9522 7.23666C37.336 6.56525 35.6024 6.22159 33.8522 6.22562C31.3969 6.22562 29.0013 6.89798 26.9194 8.168C26.4214 8.47181 25.9482 8.8055 25.5 9.16908C25.0518 8.8055 24.5786 8.47181 24.0806 8.168C21.9987 6.89798 19.6031 6.22562 17.1478 6.22562C15.3797 6.22562 13.6664 6.56429 12.0478 7.23666C10.4839 7.88412 9.07441 8.81546 7.86416 10.0008C6.65887 11.1768 5.69605 12.5779 5.03027 14.1246C4.33799 15.7333 3.98438 17.4416 3.98438 19.1997C3.98438 20.8582 4.32305 22.5865 4.99541 24.3446C5.5582 25.8138 6.36504 27.3378 7.396 28.8768C9.02959 31.3122 11.2758 33.8523 14.0648 36.4272C18.6867 40.6954 23.2638 43.6439 23.458 43.7634L24.6384 44.5204C25.1613 44.8541 25.8337 44.8541 26.3566 44.5204L27.537 43.7634C27.7312 43.6389 32.3033 40.6954 36.9302 36.4272C39.7192 33.8523 41.9654 31.3122 43.599 28.8768C44.63 27.3378 45.4418 25.8138 45.9996 24.3446C46.672 22.5865 47.0106 20.8582 47.0106 19.1997C47.0156 17.4416 46.662 15.7333 45.9697 14.1246ZM25.5 40.5809C25.5 40.5809 7.76953 29.2204 7.76953 19.1997C7.76953 14.1246 11.9681 10.0108 17.1478 10.0108C20.7885 10.0108 23.9461 12.0428 25.5 15.0112C27.0539 12.0428 30.2115 10.0108 33.8522 10.0108C39.0319 10.0108 43.2305 14.1246 43.2305 19.1997C43.2305 29.2204 25.5 40.5809 25.5 40.5809Z" fill="black"/>
</svg>
