<svg width="48" height="48" viewBox="0 0 48 48" fill="none" xmlns="http://www.w3.org/2000/svg">
<path d="M24 10.5L23.105 10.053V10.056L23.102 10.06L23.096 10.073L23.075 10.116C22.9704 10.3395 22.8737 10.5667 22.785 10.797C22.5643 11.3672 22.3917 11.9549 22.269 12.554C22.005 13.875 21.918 15.832 23.293 17.207C23.918 17.832 24.005 18.875 23.769 20.054C23.6293 20.7339 23.4112 21.3953 23.119 22.025L23.107 22.05L23.105 22.053L24 22.5C24.894 22.947 24.895 22.946 24.895 22.946V22.944L24.898 22.94L24.904 22.927L24.925 22.884L24.995 22.734C25.3234 22.0009 25.5702 21.234 25.731 20.447C25.995 19.125 26.082 17.168 24.707 15.793C24.082 15.168 23.995 14.125 24.231 12.946C24.3707 12.266 24.5888 11.6046 24.881 10.975L24.893 10.95L24.895 10.947L24 10.5Z" fill="black"/>
<path fill-rule="evenodd" clip-rule="evenodd" d="M4 29C4 28.7348 4.10536 28.4804 4.29289 28.2929C4.48043 28.1054 4.73478 28 5 28H43C43.2652 28 43.5196 28.1054 43.7071 28.2929C43.8946 28.4804 44 28.7348 44 29C44 29.2652 43.8946 29.5196 43.7071 29.7071C43.5196 29.8946 43.2652 30 43 30H40C40 32.1217 39.1571 34.1566 37.6569 35.6569C36.1566 37.1571 34.1217 38 32 38H16C13.8783 38 11.8434 37.1571 10.3431 35.6569C8.84285 34.1566 8 32.1217 8 30H5C4.73478 30 4.48043 29.8946 4.29289 29.7071C4.10536 29.5196 4 29.2652 4 29ZM10 30H38C38 31.5913 37.3679 33.1174 36.2426 34.2426C35.1174 35.3679 33.5913 36 32 36H16C14.4087 36 12.8826 35.3679 11.7574 34.2426C10.6321 33.1174 10 31.5913 10 30Z" fill="black"/>
<path d="M15.17 12.441L16 13.001C16.829 13.56 16.83 13.559 16.83 13.559L16.817 13.579C16.7293 13.7189 16.6472 13.8624 16.571 14.009C16.382 14.3678 16.2311 14.7456 16.121 15.136C15.881 16.028 15.967 16.732 16.595 17.196C18.217 18.398 18.131 20.195 17.809 21.386C17.6618 21.9152 17.459 22.4274 17.204 22.914C17.0997 23.1146 16.9869 23.3108 16.866 23.502L16.846 23.534L16.841 23.541L16.833 23.553L16.831 23.557L16.83 23.558C16.83 23.558 16.829 23.56 16 23C15.171 22.44 15.17 22.441 15.17 22.441L15.183 22.422L15.237 22.336C15.3043 22.2232 15.3683 22.1085 15.429 21.992C15.584 21.694 15.762 21.294 15.879 20.864C16.119 19.972 16.033 19.269 15.405 18.804C13.783 17.602 13.869 15.806 14.191 14.614C14.356 14.002 14.6 13.464 14.796 13.086C14.9076 12.872 15.0288 12.6631 15.159 12.46L15.166 12.448L15.169 12.443L15.171 12.441H15.17ZM33 13C32.171 12.44 32.17 12.441 32.17 12.441V12.443L32.166 12.448L32.158 12.46C32.0258 12.6618 31.905 12.8707 31.796 13.086C31.6 13.464 31.356 14.002 31.191 14.614C30.869 15.805 30.783 17.602 32.405 18.804C33.033 19.269 33.119 19.972 32.878 20.864C32.762 21.294 32.584 21.694 32.428 21.992C32.3523 22.1386 32.2705 22.2821 32.183 22.422L32.171 22.442L33 23C33.829 23.56 33.83 23.558 33.83 23.558V23.557L33.834 23.553L33.842 23.541L33.857 23.516L33.867 23.502C33.9879 23.3108 34.1007 23.1146 34.205 22.914C34.4592 22.4272 34.6617 21.915 34.809 21.386C35.131 20.195 35.217 18.398 33.595 17.196C32.967 16.731 32.881 16.028 33.122 15.136C33.238 14.706 33.416 14.306 33.572 14.008C33.6479 13.8614 33.7296 13.718 33.817 13.578L33.829 13.559L33 13Z" fill="black"/>
</svg>
