<svg width="50" height="50" viewBox="0 0 50 50" fill="none" xmlns="http://www.w3.org/2000/svg">
<g clip-path="url(#clip0_34_100)">
<path d="M44.4444 27.7778V41.6667C44.4444 43.1944 43.1944 44.4444 41.6667 44.4444H8.33333C6.80556 44.4444 5.55556 43.1944 5.55556 41.6667V27.7778C5.55556 26.25 4.30556 25 2.77778 25C1.25 25 0 26.25 0 27.7778V44.4444C0 47.5 2.5 50 5.55556 50H44.4444C47.5 50 50 47.5 50 44.4444V27.7778C50 26.25 48.75 25 47.2222 25C45.6944 25 44.4444 26.25 44.4444 27.7778ZM27.7778 26.8611L33 21.6389C33.2572 21.3817 33.5625 21.1777 33.8985 21.0385C34.2345 20.8994 34.5946 20.8277 34.9583 20.8277C35.322 20.8277 35.6822 20.8994 36.0182 21.0385C36.3542 21.1777 36.6595 21.3817 36.9167 21.6389C37.1738 21.8961 37.3778 22.2014 37.517 22.5374C37.6562 22.8734 37.7278 23.2335 37.7278 23.5972C37.7278 23.9609 37.6562 24.3211 37.517 24.6571C37.3778 24.9931 37.1738 25.2984 36.9167 25.5556L26.9444 35.5278C26.6875 35.7853 26.3822 35.9896 26.0462 36.129C25.7101 36.2684 25.3499 36.3401 24.9861 36.3401C24.6223 36.3401 24.2621 36.2684 23.926 36.129C23.59 35.9896 23.2848 35.7853 23.0278 35.5278L13.0556 25.5556C12.5362 25.0362 12.2444 24.3317 12.2444 23.5972C12.2444 22.8627 12.5362 22.1583 13.0556 21.6389C13.5749 21.1195 14.2794 20.8277 15.0139 20.8277C15.7484 20.8277 16.4528 21.1195 16.9722 21.6389L22.2222 26.8611V2.77778C22.2222 1.25 23.4722 0 25 0C26.5278 0 27.7778 1.25 27.7778 2.77778V26.8611Z" fill="black"/>
</g>
<defs>
<clipPath id="clip0_34_100">
<rect width="50" height="50" fill="white"/>
</clipPath>
</defs>
</svg>
