<svg width="50" height="50" viewBox="0 0 40 40" fill="none" xmlns="http://www.w3.org/2000/svg">
<path d="M19.0476 0C29.5695 0 38.099 8.52912 38.099 19.0505C38.099 29.57 29.5695 38.0991 19.0476 38.0991C8.52571 38.0991 3.19029e-07 29.57 3.19029e-07 19.0505C-0.00190444 8.52912 8.52571 0 19.0476 0ZM19.0476 2.85701C16.9063 2.83378 14.7816 3.23547 12.7966 4.0388C10.8116 4.84214 9.00558 6.03118 7.48316 7.5371C5.96075 9.04303 4.75214 10.8359 3.92728 12.812C3.10242 14.7882 2.67771 16.9082 2.67771 19.0496C2.67771 21.1909 3.10242 23.311 3.92728 25.2871C4.75214 27.2632 5.96075 29.0561 7.48316 30.562C9.00558 32.068 10.8116 33.257 12.7966 34.0603C14.7816 34.8637 16.9063 35.2654 19.0476 35.2421C23.2991 35.1769 27.3544 33.4423 30.3378 30.4129C33.3213 27.3835 34.9935 23.3023 34.9935 19.0505C34.9935 14.7988 33.3213 10.7175 30.3378 7.68813C27.3544 4.6587 23.2991 2.92412 19.0476 2.85891V2.85701ZM19.04 16.1897C19.3855 16.1893 19.7195 16.3141 19.9801 16.541C20.2407 16.7679 20.4101 17.0816 20.4571 17.4239L20.4705 17.6182L20.4781 28.0977C20.4818 28.4622 20.346 28.8144 20.0985 29.082C19.8511 29.3497 19.5106 29.5126 19.1469 29.5374C18.7832 29.5623 18.4238 29.4471 18.1422 29.2156C17.8606 28.984 17.6783 28.6536 17.6324 28.292L17.621 28.0996L17.6133 17.6201C17.6133 17.2413 17.7638 16.8779 18.0318 16.61C18.2997 16.3421 18.663 16.1916 19.0419 16.1916L19.04 16.1897ZM19.0495 9.52907C19.3044 9.52101 19.5582 9.56423 19.796 9.65618C20.0338 9.74812 20.2507 9.88691 20.4338 10.0643C20.6169 10.2417 20.7625 10.4541 20.8619 10.6888C20.9613 10.9236 21.0126 11.1759 21.0126 11.4309C21.0126 11.6858 20.9613 11.9382 20.8619 12.1729C20.7625 12.4077 20.6169 12.6201 20.4338 12.7975C20.2507 12.9749 20.0338 13.1136 19.796 13.2056C19.5582 13.2975 19.3044 13.3408 19.0495 13.3327C18.5555 13.3171 18.087 13.1098 17.7431 12.7549C17.3992 12.3999 17.2069 11.9251 17.2069 11.4309C17.2069 10.9367 17.3992 10.4618 17.7431 10.1069C18.087 9.75193 18.5555 9.5447 19.0495 9.52907V9.52907Z" fill="black"/>
</svg>
