<svg width="50" height="50" viewBox="0 0 50 50" fill="none" xmlns="http://www.w3.org/2000/svg">
<g clip-path="url(#clip0_34_98)">
<path d="M44.6312 37.7883H40.6398C40.3673 37.7883 40.1118 37.9104 39.9414 38.1255C39.544 38.6196 39.1182 39.0962 38.6696 39.5496C36.8351 41.4297 34.6621 42.928 32.2709 43.9616C29.7934 45.0329 27.1307 45.5825 24.4413 45.5776C21.7217 45.5776 19.0873 45.0312 16.6118 43.9616C14.2205 42.928 12.0475 41.4297 10.213 39.5496C8.37526 37.6759 6.90986 35.4551 5.898 33.0102C4.84763 30.4757 4.3196 27.7844 4.3196 25C4.3196 22.2157 4.85331 19.5243 5.898 16.9899C6.90863 14.5427 8.36212 12.3396 10.213 10.4504C12.064 8.56121 14.2158 7.07312 16.6118 6.03843C19.0873 4.96886 21.7217 4.42245 24.4413 4.42245C27.1609 4.42245 29.7954 4.96305 32.2709 6.03843C34.6668 7.07312 36.8187 8.56121 38.6696 10.4504C39.1182 10.9096 39.5383 11.3863 39.9414 11.8746C40.1118 12.0896 40.3729 12.2117 40.6398 12.2117H44.6312C44.9889 12.2117 45.2103 11.8048 45.0116 11.4967C40.6568 4.56777 33.0374 -0.0185859 24.3789 0.00466564C10.7751 0.0395429 -0.131706 11.3456 0.00455893 25.2558C0.140823 38.9451 11.0306 49.9954 24.4413 49.9954C33.0771 49.9954 40.6625 45.4148 45.0116 38.5033C45.2046 38.1952 44.9889 37.7883 44.6312 37.7883ZM49.6787 24.6338L41.622 18.1234C41.3211 17.8793 40.8839 18.1001 40.8839 18.4896V22.9074H23.056C22.8062 22.9074 22.6018 23.1166 22.6018 23.3724V26.6276C22.6018 26.8834 22.8062 27.0927 23.056 27.0927H40.8839V31.5104C40.8839 31.8999 41.3268 32.1208 41.622 31.8766L49.6787 25.3662C49.733 25.3227 49.7769 25.2671 49.8071 25.2037C49.8372 25.1403 49.8529 25.0706 49.8529 25C49.8529 24.9294 49.8372 24.8598 49.8071 24.7963C49.7769 24.7329 49.733 24.6773 49.6787 24.6338V24.6338Z" fill="black"/>
</g>
<defs>
<clipPath id="clip0_34_98">
<rect width="50" height="50" fill="white"/>
</clipPath>
</defs>
</svg>
