<svg width="50" height="50" viewBox="0 0 50 50" fill="none" xmlns="http://www.w3.org/2000/svg">
<g clip-path="url(#clip0_31_90)">
<path d="M36.5793 18.1407C36.9181 18.4986 37.101 18.9762 37.0879 19.4689C37.0748 19.9615 36.8668 20.4288 36.5095 20.7681L22.8842 33.789C22.5319 34.1203 22.0657 34.3035 21.5821 34.3005C21.1056 34.3023 20.647 34.1189 20.3032 33.789L13.4906 27.2786C13.3016 27.1137 13.1479 26.9123 13.0388 26.6866C12.9296 26.4608 12.8672 26.2153 12.8554 25.9648C12.8435 25.7143 12.8825 25.464 12.9698 25.229C13.0572 24.9939 13.1911 24.7789 13.3637 24.597C13.5362 24.415 13.7438 24.2698 13.9739 24.1701C14.204 24.0704 14.4519 24.0183 14.7026 24.0168C14.9534 24.0154 15.2019 24.0646 15.4331 24.1616C15.6643 24.2587 15.8736 24.4014 16.0482 24.5814L21.5821 29.8595L33.9519 18.071C34.3097 17.7322 34.7874 17.5493 35.28 17.5623C35.7726 17.5754 36.2399 17.7834 36.5793 18.1407V18.1407ZM49.1816 24.9999C49.1816 29.7826 47.7634 34.4578 45.1063 38.4345C42.4492 42.4111 38.6725 45.5105 34.2539 47.3407C29.8353 49.171 24.9732 49.6499 20.2825 48.7168C15.5917 47.7838 11.283 45.4807 7.9011 42.0988C4.51925 38.717 2.21618 34.4083 1.28313 29.7175C0.350084 25.0267 0.828959 20.1646 2.6592 15.746C4.48945 11.3274 7.58886 7.55079 11.5655 4.89368C15.5421 2.23658 20.2174 0.818359 25 0.818359C31.4096 0.83065 37.5531 3.38229 42.0854 7.91455C46.6177 12.4468 49.1693 18.5903 49.1816 24.9999V24.9999ZM45.4613 24.9999C45.4613 20.953 44.2613 16.9971 42.013 13.6322C39.7647 10.2674 36.5691 7.64479 32.8302 6.09612C29.0914 4.54745 24.9773 4.14225 21.0082 4.93176C17.0391 5.72126 13.3933 7.67001 10.5317 10.5316C7.67014 13.3931 5.72139 17.039 4.93189 21.0081C4.14238 24.9772 4.54759 29.0913 6.09625 32.8301C7.64492 36.5689 10.2675 39.7645 13.6323 42.0129C16.9972 44.2612 20.9532 45.4612 25 45.4612C30.4248 45.4551 35.6257 43.2973 39.4616 39.4614C43.2975 35.6255 45.4552 30.4247 45.4613 24.9999V24.9999Z" fill="black"/>
</g>
<defs>
<clipPath id="clip0_31_90">
<rect width="50" height="50" fill="white"/>
</clipPath>
</defs>
</svg>
