<svg width="50" height="50" viewBox="0 0 50 50" fill="none" xmlns="http://www.w3.org/2000/svg">
<g clip-path="url(#clip0_36_108)">
<path d="M48.2375 30C48.4699 29.9997 48.7001 30.0454 48.9147 30.1344C49.1294 30.2235 49.3242 30.3542 49.4881 30.519C49.652 30.6838 49.7816 30.8794 49.8694 31.0946C49.9573 31.3097 50.0017 31.5401 50 31.7725V39.7825C50.0017 40.0138 49.9577 40.2432 49.8706 40.4576C49.7835 40.6719 49.6551 40.8669 49.4925 41.0316C49.33 41.1962 49.1366 41.3272 48.9234 41.417C48.7102 41.5068 48.4814 41.5537 48.25 41.555C48.0187 41.5537 47.7899 41.5068 47.5767 41.417C47.3635 41.3272 47.1701 41.1962 47.0076 41.0316C46.845 40.8669 46.7165 40.6719 46.6295 40.4576C46.5424 40.2432 46.4984 40.0138 46.5 39.7825V36.97C41.9475 44.61 33.4975 50 24.3925 50C13.3675 50 4.12754 43.1975 0.120044 32.7125C-0.0482197 32.2757 -0.0376189 31.7901 0.149551 31.361C0.336721 30.9319 0.685391 30.5939 1.12004 30.42C2.02004 30.0675 3.03504 30.52 3.38504 31.4325C6.88504 40.5875 14.855 46.4575 24.3925 46.4575C32.82 46.4575 40.6925 41.0025 44.36 33.5725L40.6825 33.5975C40.4512 33.5978 40.2221 33.5525 40.0083 33.4642C39.7944 33.3759 39.6001 33.2464 39.4364 33.0829C39.2727 32.9194 39.1429 32.7253 39.0543 32.5116C38.9657 32.2979 38.92 32.0688 38.92 31.8375C38.914 31.3705 39.0936 30.9202 39.4194 30.5855C39.7452 30.2508 40.1905 30.0591 40.6575 30.0525L48.2375 30ZM25.6125 0C36.6325 0 45.875 6.8025 49.8825 17.2875C50.0508 17.7243 50.0402 18.2099 49.853 18.639C49.6659 19.0681 49.3172 19.4061 48.8825 19.58C48.6675 19.6639 48.4379 19.7042 48.2072 19.6986C47.9764 19.693 47.7491 19.6416 47.5383 19.5474C47.3276 19.4532 47.1377 19.318 46.9796 19.1498C46.8215 18.9816 46.6985 18.7837 46.6175 18.5675C43.1175 9.4125 35.1475 3.5425 25.61 3.5425C17.1825 3.5425 9.31004 8.9975 5.64254 16.4275L9.32004 16.4025C9.55138 16.4022 9.78051 16.4475 9.99434 16.5358C10.2082 16.6241 10.4025 16.7536 10.5662 16.9171C10.7299 17.0806 10.8597 17.2747 10.9483 17.4884C11.0369 17.7021 11.0825 17.9312 11.0825 18.1625C11.0886 18.6295 10.9089 19.0798 10.5832 19.4145C10.2574 19.7492 9.81206 19.9409 9.34504 19.9475L1.76254 20C1.53015 20.0003 1.29999 19.9546 1.08535 19.8656C0.870712 19.7765 0.675837 19.6458 0.511977 19.481C0.348116 19.3162 0.218513 19.1206 0.130647 18.9054C0.0427818 18.6903 -0.00160635 18.4599 4.44066e-05 18.2275V10.2175C4.44066e-05 9.2375 0.782544 8.445 1.75004 8.445C2.71504 8.445 3.50004 9.2375 3.50004 10.2175V13.03C8.05254 5.39 16.5025 0 25.6075 0H25.6125Z" fill="black"/>
</g>
<defs>
<clipPath id="clip0_36_108">
<rect width="50" height="50" fill="white"/>
</clipPath>
</defs>
</svg>
