<svg width="50" height="50" viewBox="0 0 50 50" fill="none" xmlns="http://www.w3.org/2000/svg">
<g clip-path="url(#clip0_36_106)">
<path d="M24.4 0C38.5425 0 50 11.1925 50 25C50 38.8075 38.54 50 24.4 50C16.4225 50 9.045 46.4075 4.225 40.385C4.08988 40.2168 3.98995 40.0231 3.93115 39.8156C3.87234 39.608 3.85586 39.3907 3.88267 39.1766C3.90949 38.9625 3.97907 38.756 4.08726 38.5694C4.19546 38.3827 4.34007 38.2197 4.5125 38.09C4.86412 37.8225 5.30608 37.7024 5.74474 37.7551C6.1834 37.8078 6.5843 38.0293 6.8625 38.3725C8.97107 40.9931 11.6427 43.1051 14.6792 44.552C17.7157 45.9988 21.039 46.7432 24.4025 46.73C36.69 46.73 46.6525 37 46.6525 25C46.6525 13 36.69 3.27 24.4025 3.27C21.087 3.25725 17.81 3.98058 14.808 5.38779C11.8059 6.795 9.15365 8.85102 7.0425 11.4075C6.75989 11.7476 6.35589 11.9642 5.91621 12.0114C5.47653 12.0585 5.03578 11.9325 4.6875 11.66C4.51656 11.5281 4.37391 11.3631 4.26803 11.1749C4.16215 10.9867 4.09521 10.7792 4.07118 10.5646C4.04716 10.35 4.06654 10.1328 4.12819 9.92583C4.18983 9.71889 4.29247 9.52646 4.43 9.36C9.2575 3.485 16.5375 0 24.4025 0H24.4ZM25.7625 17.155L32.53 23.9225C33.185 24.5775 33.1975 25.6225 32.5575 26.2625L25.95 32.875C25.7945 33.0272 25.6105 33.1472 25.4085 33.2282C25.2066 33.3092 24.9906 33.3496 24.773 33.347C24.5555 33.3445 24.3405 33.299 24.1405 33.2133C23.9405 33.1276 23.7594 33.0033 23.6075 32.8475C23.4519 32.6954 23.3278 32.5142 23.2423 32.3141C23.1568 32.114 23.1116 31.899 23.1092 31.6814C23.1069 31.4639 23.1475 31.248 23.2287 31.0461C23.3099 30.8442 23.4302 30.6604 23.5825 30.505L27.45 26.635L1.675 26.6375C1.45745 26.6401 1.24151 26.5999 1.03955 26.519C0.837579 26.4381 0.653543 26.3181 0.497969 26.1661C0.342395 26.014 0.218336 25.8327 0.132889 25.6326C0.0474421 25.4325 0.00228451 25.2176 0 25C0 24.0975 0.75 23.365 1.675 23.365H27.345L23.45 19.4675C23.2944 19.3154 23.1703 19.1342 23.0848 18.9341C22.9993 18.734 22.9541 18.519 22.9517 18.3014C22.9494 18.0839 22.99 17.868 23.0712 17.6661C23.1524 17.4642 23.2727 17.2804 23.425 17.125C23.7389 16.8192 24.1612 16.6503 24.5994 16.6555C25.0376 16.6606 25.4559 16.8394 25.7625 17.1525V17.155Z" fill="black"/>
</g>
<defs>
<clipPath id="clip0_36_106">
<rect width="50" height="50" fill="white"/>
</clipPath>
</defs>
</svg>
